<svg width="200" height="200" viewBox="0 0 100 100" fill="none" xmlns="http://www.w3.org/2000/svg">
<path d="M30 50 C30 68 40 75 50 75 C60 75 70 68 70 50" stroke="white" stroke-width="4" stroke-linecap="round" stroke-linejoin="round"/>
<path d="M30 55 C24 55 24 65 30 65" stroke="white" stroke-width="4" stroke-linecap="round" stroke-linejoin="round"/>
<path d="M70 55 C76 55 76 65 70 65" stroke="white" stroke-width="4" stroke-linecap="round" stroke-linejoin="round"/>
<path d="M25 45 Q50 35 75 45" stroke="white" stroke-width="4" stroke-linecap="round" stroke-linejoin="round"/>
<path d="M28 44 C28 25 35 20 50 20 C65 20 72 25 72 44" stroke="white" stroke-width="4" stroke-linecap="round" stroke-linejoin="round"/>
<path d="M48 20 L52 20" stroke="white" stroke-width="4" stroke-linecap="round" />
<path d="M30 50 L28 55" stroke="white" stroke-width="4" stroke-linecap="round" />
<path d="M70 50 L72 55" stroke="white" stroke-width="4" stroke-linecap="round" />
<path d="M40 74 L40 82" stroke="white" stroke-width="4" stroke-linecap="round" />
<path d="M60 74 L60 82" stroke="white" stroke-width="4" stroke-linecap="round" />
<path d="M40 82 C30 85 15 90 10 100" stroke="white" stroke-width="4" stroke-linecap="round" stroke-linejoin="round"/>
<path d="M60 82 C70 85 85 90 90 100" stroke="white" stroke-width="4" stroke-linecap="round" stroke-linejoin="round"/>
</svg>